<svg id="visual" viewBox="0 0 960 540" width="960" height="540" xmlns="http://www.w3.org/2000/svg" xmlns:xlink="http://www.w3.org/1999/xlink" version="1.1"><rect x="0" y="0" width="960" height="540" fill="#001220"></rect><defs><linearGradient id="grad1_0" x1="43.8%" y1="0%" x2="100%" y2="100%"><stop offset="14.444444444444446%" stop-color="#fbae3c" stop-opacity="1"></stop><stop offset="85.55555555555554%" stop-color="#fbae3c" stop-opacity="1"></stop></linearGradient></defs><defs><linearGradient id="grad1_1" x1="43.8%" y1="0%" x2="100%" y2="100%"><stop offset="14.444444444444446%" stop-color="#fbae3c" stop-opacity="1"></stop><stop offset="85.55555555555554%" stop-color="#e1685e" stop-opacity="1"></stop></linearGradient></defs><defs><linearGradient id="grad1_2" x1="43.8%" y1="0%" x2="100%" y2="100%"><stop offset="14.444444444444446%" stop-color="#96446e" stop-opacity="1"></stop><stop offset="85.55555555555554%" stop-color="#e1685e" stop-opacity="1"></stop></linearGradient></defs><defs><linearGradient id="grad1_3" x1="43.8%" y1="0%" x2="100%" y2="100%"><stop offset="14.444444444444446%" stop-color="#96446e" stop-opacity="1"></stop><stop offset="85.55555555555554%" stop-color="#3d3056" stop-opacity="1"></stop></linearGradient></defs><defs><linearGradient id="grad1_4" x1="43.8%" y1="0%" x2="100%" y2="100%"><stop offset="14.444444444444446%" stop-color="#001220" stop-opacity="1"></stop><stop offset="85.55555555555554%" stop-color="#3d3056" stop-opacity="1"></stop></linearGradient></defs><defs><linearGradient id="grad2_0" x1="0%" y1="0%" x2="56.3%" y2="100%"><stop offset="14.444444444444446%" stop-color="#fbae3c" stop-opacity="1"></stop><stop offset="85.55555555555554%" stop-color="#fbae3c" stop-opacity="1"></stop></linearGradient></defs><defs><linearGradient id="grad2_1" x1="0%" y1="0%" x2="56.3%" y2="100%"><stop offset="14.444444444444446%" stop-color="#e1685e" stop-opacity="1"></stop><stop offset="85.55555555555554%" stop-color="#fbae3c" stop-opacity="1"></stop></linearGradient></defs><defs><linearGradient id="grad2_2" x1="0%" y1="0%" x2="56.3%" y2="100%"><stop offset="14.444444444444446%" stop-color="#e1685e" stop-opacity="1"></stop><stop offset="85.55555555555554%" stop-color="#96446e" stop-opacity="1"></stop></linearGradient></defs><defs><linearGradient id="grad2_3" x1="0%" y1="0%" x2="56.3%" y2="100%"><stop offset="14.444444444444446%" stop-color="#3d3056" stop-opacity="1"></stop><stop offset="85.55555555555554%" stop-color="#96446e" stop-opacity="1"></stop></linearGradient></defs><defs><linearGradient id="grad2_4" x1="0%" y1="0%" x2="56.3%" y2="100%"><stop offset="14.444444444444446%" stop-color="#3d3056" stop-opacity="1"></stop><stop offset="85.55555555555554%" stop-color="#001220" stop-opacity="1"></stop></linearGradient></defs><g transform="translate(960, 0)"><path d="M0 459C-36.8 422.5 -73.6 386.1 -123 378.5C-172.4 371 -234.4 392.3 -269.8 371.3C-305.2 350.4 -313.9 287.2 -332.5 241.6C-351.1 196 -379.6 168 -402.3 130.7C-425 93.4 -442 46.7 -459 0L0 0Z" fill="#18223c"></path><path d="M0 367.2C-29.4 338 -58.9 308.9 -98.4 302.8C-137.9 296.8 -187.5 313.8 -215.8 297.1C-244.1 280.3 -251.1 229.7 -266 193.3C-280.9 156.8 -303.7 134.4 -321.8 104.6C-340 74.7 -353.6 37.4 -367.2 0L0 0Z" fill="#683a67"></path><path d="M0 275.4C-22.1 253.5 -44.1 231.7 -73.8 227.1C-103.4 222.6 -140.6 235.4 -161.9 222.8C-183.1 210.2 -188.3 172.3 -199.5 144.9C-210.7 117.6 -227.7 100.8 -241.4 78.4C-255 56 -265.2 28 -275.4 0L0 0Z" fill="#c0526a"></path><path d="M0 183.6C-14.7 169 -29.4 154.4 -49.2 151.4C-69 148.4 -93.8 156.9 -107.9 148.5C-122.1 140.2 -125.6 114.9 -133 96.6C-140.4 78.4 -151.8 67.2 -160.9 52.3C-170 37.4 -176.8 18.7 -183.6 0L0 0Z" fill="#f6884d"></path><path d="M0 91.8C-7.4 84.5 -14.7 77.2 -24.6 75.7C-34.5 74.2 -46.9 78.5 -54 74.3C-61 70.1 -62.8 57.4 -66.5 48.3C-70.2 39.2 -75.9 33.6 -80.5 26.1C-85 18.7 -88.4 9.3 -91.8 0L0 0Z" fill="#fbae3c"></path></g><g transform="translate(0, 540)"><path d="M0 -459C40 -431 79.9 -402.9 127.9 -393.7C175.9 -384.5 231.9 -394.2 269.8 -371.3C307.7 -348.5 327.4 -293.2 339 -246.3C350.6 -199.4 354.2 -160.8 372.8 -121.1C391.5 -81.5 425.2 -40.7 459 0L0 0Z" fill="#18223c"></path><path d="M0 -367.2C32 -344.8 64 -322.3 102.3 -315C140.7 -307.6 185.5 -315.3 215.8 -297.1C246.1 -278.8 261.9 -234.6 271.2 -197C280.5 -159.5 283.3 -128.6 298.3 -96.9C313.2 -65.2 340.2 -32.6 367.2 0L0 0Z" fill="#683a67"></path><path d="M0 -275.4C24 -258.6 48 -241.8 76.8 -236.2C105.6 -230.7 139.2 -236.5 161.9 -222.8C184.6 -209.1 196.4 -175.9 203.4 -147.8C210.4 -119.6 212.5 -96.5 223.7 -72.7C234.9 -48.9 255.1 -24.4 275.4 0L0 0Z" fill="#c0526a"></path><path d="M0 -183.6C16 -172.4 32 -161.2 51.2 -157.5C70.4 -153.8 92.8 -157.7 107.9 -148.5C123.1 -139.4 130.9 -117.3 135.6 -98.5C140.2 -79.7 141.7 -64.3 149.1 -48.5C156.6 -32.6 170.1 -16.3 183.6 0L0 0Z" fill="#f6884d"></path><path d="M0 -91.8C8 -86.2 16 -80.6 25.6 -78.7C35.2 -76.9 46.4 -78.8 54 -74.3C61.5 -69.7 65.5 -58.6 67.8 -49.3C70.1 -39.9 70.8 -32.2 74.6 -24.2C78.3 -16.3 85 -8.1 91.8 0L0 0Z" fill="#fbae3c"></path></g></svg>