<svg id="visual" viewBox="0 0 900 140" width="900" height="140" xmlns="http://www.w3.org/2000/svg" xmlns:xlink="http://www.w3.org/1999/xlink" version="1.1"><path d="M0 99L16.7 94.7C33.3 90.3 66.7 81.7 100 72.7C133.3 63.7 166.7 54.3 200 55.2C233.3 56 266.7 67 300 75.2C333.3 83.3 366.7 88.7 400 93C433.3 97.3 466.7 100.7 500 98C533.3 95.3 566.7 86.7 600 86C633.3 85.3 666.7 92.7 700 93.5C733.3 94.3 766.7 88.7 800 82.7C833.3 76.7 866.7 70.3 883.3 67.2L900 64L900 0L883.3 0C866.7 0 833.3 0 800 0C766.7 0 733.3 0 700 0C666.7 0 633.3 0 600 0C566.7 0 533.3 0 500 0C466.7 0 433.3 0 400 0C366.7 0 333.3 0 300 0C266.7 0 233.3 0 200 0C166.7 0 133.3 0 100 0C66.7 0 33.3 0 16.7 0L0 0Z" fill="#c78014" stroke-linecap="round" stroke-linejoin="miter"></path></svg>