<svg id="visual" viewBox="0 0 900 100" width="900" height="100" xmlns="http://www.w3.org/2000/svg" xmlns:xlink="http://www.w3.org/1999/xlink" version="1.1"><path d="M0 28L15 32.8C30 37.7 60 47.3 90 49.2C120 51 150 45 180 48.3C210 51.7 240 64.3 270 62.7C300 61 330 45 360 38C390 31 420 33 450 40.2C480 47.3 510 59.7 540 60.7C570 61.7 600 51.3 630 48.2C660 45 690 49 720 53.2C750 57.3 780 61.7 810 64.5C840 67.3 870 68.7 885 69.3L900 70L900 101L885 101C870 101 840 101 810 101C780 101 750 101 720 101C690 101 660 101 630 101C600 101 570 101 540 101C510 101 480 101 450 101C420 101 390 101 360 101C330 101 300 101 270 101C240 101 210 101 180 101C150 101 120 101 90 101C60 101 30 101 15 101L0 101Z" fill="#358bc4" stroke-linecap="round" stroke-linejoin="miter"></path></svg>